# xmcd
#
# Track frame offsets:
#	150
#	13863
#	27626
#	41011
#	52037
#	65681
#	78668
#	90160
#	103141
#	115996
#	125777
#	138921
#	151670
#	164079
#	174859
#	188794
#	201367
#	213151
#	227357
#	240979
#
# Disc length: 3406 seconds
#
# Revision: 1
# Processed by: cddbd v1.5PL3 Copyright (c) Steve Scherf et al.
# Submitted via: EasyCDDAExtractor 6.0.0.1
#
DISCID=110d4c14
DTITLE=Billie Holiday - Triple Gold CD1 1
DYEAR=1997
DGENRE=Blues
TTITLE0=What A Little Moonlight Can Do
TTITLE1=All Of Me
TTITLE2=The Moon Looks Down And Laughs
TTITLE3=If I Were You
TTITLE4=Night And Day
TTITLE5=Forget If You Can
TTITLE6=Havin' Myself A Time
TTITLE7=Says My Heart
TTITLE8=I Wish I Had You
TTITLE9=I'm Gonna Lock My Heart (And Throw Away The Key)
TTITLE10=St. Louis Blues
TTITLE11=I Can't Get Started
TTITLE12=I've Got A Date With A Dream
TTITLE13=You Can't Be Mine (And Someone Else's Too)
TTITLE14=Everybody's Laughing
TTITLE15=Here It Is, Tomorrow Again
TTITLE16=Say With A Kiss
TTITLE17=April In My Heart
TTITLE18=I'll Never Fail You
TTITLE19=Loveless Love
EXTD=
EXTT0=
EXTT1=
EXTT2=
EXTT3=
EXTT4=
EXTT5=
EXTT6=
EXTT7=
EXTT8=
EXTT9=
EXTT10=
EXTT11=
EXTT12=
EXTT13=
EXTT14=
EXTT15=
EXTT16=
EXTT17=
EXTT18=
EXTT19=
PLAYORDER=
